# xmcd
#
# Track frame offsets:
#	150
#	1672
#	15408
#	31068
#	49098
#	65005
#	69988
#	86280
#	102996
#	107905
#	123751
#	137798
#	152509
#	167656
#	187814
#	189680
#
# Disc length: 2882 seconds
# Revision: 0
# Processed by: cddbd v1.5.2PL0 Copyright (c) Steve Scherf et al.
# Submitted via: dBpowerAMP V12.0
#
DISCID=bd0b4010
DTITLE=Rivers Rutherford - These Are My People
DYEAR=2009
DGENRE=Country
TTITLE0=Why You Call Me Rivers
TTITLE1=Lucky Day
TTITLE2=Do What You Gotta Do
TTITLE3=Just When I Thought I Stopped Loving You
TTITLE4=Love Is Like Rain
TTITLE5=Waist High Cotton
TTITLE6=These Are My People
TTITLE7=Stealing Cinderella
TTITLE8=Diesel Smoke And Ice Cream Cones
TTITLE9=More
TTITLE10=Your Town For Now
TTITLE11=Lay Your Lips On Me
TTITLE12=I'd Love To Be Your Last
TTITLE13=To Go To Hell
TTITLE14=Watching The Big Rigs Go By
TTITLE15=When I Get Where I'm Goin'
EXTD=
EXTT0=
EXTT1=
EXTT2=
EXTT3=
EXTT4=
EXTT5=
EXTT6=
EXTT7=
EXTT8=
EXTT9=
EXTT10=
EXTT11=
EXTT12=
EXTT13=
EXTT14=
EXTT15=
PLAYORDER=
